<svg width="20" height="21" viewBox="0 0 20 21" fill="none" xmlns="http://www.w3.org/2000/svg">
<path d="M15.0001 7.16669C15.0001 5.8406 14.4733 4.56883 13.5356 3.63115C12.5979 2.69347 11.3262 2.16669 10.0001 2.16669C8.67401 2.16669 7.40224 2.69347 6.46456 3.63115C5.52688 4.56883 5.00009 5.8406 5.00009 7.16669C5.00009 13 2.50009 14.6667 2.50009 14.6667H17.5001C17.5001 14.6667 15.0001 13 15.0001 7.16669Z" stroke="#eeeeee" stroke-width="1.6" stroke-linecap="round" stroke-linejoin="round"/>
<path d="M11.4418 18C11.2953 18.2526 11.085 18.4622 10.832 18.6079C10.5789 18.7537 10.2921 18.8304 10.0001 18.8304C9.70813 18.8304 9.42127 18.7537 9.16825 18.6079C8.91524 18.4622 8.70495 18.2526 8.55844 18" stroke="#eeeeee" stroke-width="1.6" stroke-linecap="round" stroke-linejoin="round"/>
</svg>
