<svg width="20" height="20" viewBox="0 0 20 20" fill="none" xmlns="http://www.w3.org/2000/svg">
<path fill-rule="evenodd" clip-rule="evenodd" d="M15.1392 9.99793C14.8237 9.99793 14.5679 10.2537 14.5679 10.5692V16.2819C14.5679 16.5974 14.3121 16.8532 13.9966 16.8532H3.71381C3.39829 16.8532 3.14253 16.5974 3.14253 16.2819V4.85651C3.14253 4.54099 3.39829 4.28523 3.71381 4.28523H10.569C10.8846 4.28523 11.1403 4.02946 11.1403 3.71395C11.1403 3.39843 10.8846 3.1427 10.569 3.1427H3.71381C2.7673 3.1427 2 3.91 2 4.85651V16.2819C2 17.2284 2.7673 17.9957 3.71381 17.9957H13.9967C14.9432 17.9957 15.7105 17.2284 15.7105 16.2819V10.5692C15.7105 10.2537 15.4547 9.99793 15.1392 9.99793Z" fill="#D0021B"/>
<path fill-rule="evenodd" clip-rule="evenodd" d="M17.3554 2.6408C16.9452 2.23056 16.3889 2.00019 15.8087 2.00019C15.2283 1.99853 14.6714 2.22936 14.2623 2.64117L6.73754 10.1653C6.67511 10.2282 6.62801 10.3047 6.59986 10.3887L5.45734 13.8163C5.35762 14.1156 5.51946 14.4391 5.81881 14.5388C5.87689 14.5582 5.9377 14.5681 5.99889 14.5681C6.06022 14.5681 6.12117 14.5582 6.17941 14.539L9.60703 13.3965C9.69121 13.3683 9.7677 13.321 9.83039 13.2582L17.3551 5.73346C18.2092 4.8795 18.2093 3.49486 17.3554 2.6408ZM16.5474 4.92623L9.12087 12.3527L6.90206 13.0937L7.6407 10.8777L15.0701 3.45121C15.4785 3.04358 16.1401 3.04425 16.5477 3.45269C16.7424 3.6478 16.8521 3.91193 16.853 4.18758C16.8537 4.4647 16.7437 4.73061 16.5474 4.92623Z" fill="#D0021B"/>
</svg>
