<svg width="20" height="21" viewBox="0 0 20 21" fill="none" xmlns="http://www.w3.org/2000/svg">
<path d="M17.6 5.29999H2.39998C1.95815 5.29999 1.59998 5.65816 1.59998 6.09999C1.59998 6.54182 1.95815 6.89999 2.39998 6.89999H17.6C18.0418 6.89999 18.4 6.54182 18.4 6.09999C18.4 5.65816 18.0418 5.29999 17.6 5.29999Z" fill="#222222"/>
<path d="M17.6 10.1H2.39998C1.95815 10.1 1.59998 10.4581 1.59998 10.9C1.59998 11.3418 1.95815 11.7 2.39998 11.7H17.6C18.0418 11.7 18.4 11.3418 18.4 10.9C18.4 10.4581 18.0418 10.1 17.6 10.1Z" fill="#222222"/>
<path d="M17.6 14.9H2.39998C1.95815 14.9 1.59998 15.2582 1.59998 15.7C1.59998 16.1418 1.95815 16.5 2.39998 16.5H17.6C18.0418 16.5 18.4 16.1418 18.4 15.7C18.4 15.2582 18.0418 14.9 17.6 14.9Z" fill="#222222"/>
</svg>
