<svg width="20" height="20" viewBox="0 0 20 20" fill="none" xmlns="http://www.w3.org/2000/svg">
<path d="M12.4999 2.5H4.99995C4.30829 2.5 3.71663 2.92083 3.46663 3.51666L0.954146 9.39162C0.879146 9.58329 0.833313 9.78745 0.833313 9.99995V11.5958L0.841646 11.6041L0.833313 11.6666C0.833313 12.5874 1.57914 13.3333 2.49997 13.3333H7.76244L6.96661 17.1416C6.94994 17.2249 6.93744 17.3124 6.93744 17.4041C6.93744 17.7499 7.07911 18.0624 7.30411 18.2874L8.1916 19.1666L13.6791 13.6791C13.9791 13.3749 14.1666 12.9583 14.1666 12.4999V4.16666C14.1666 3.24583 13.4207 2.5 12.4999 2.5ZM15.8332 2.5V12.4999H19.1665V2.5H15.8332Z" fill="#D0021B"/>
</svg>
